<?xml version="1.0" encoding="utf-8"?>
<!-- Generator: Adobe Illustrator 21.1.0, SVG Export Plug-In . SVG Version: 6.00 Build 0)  -->
<svg version="1.1" id="Layer_1" xmlns="http://www.w3.org/2000/svg" xmlns:xlink="http://www.w3.org/1999/xlink" x="0px" y="0px"
	 viewBox="0 0 150 150" style="enable-background:new 0 0 150 150;" xml:space="preserve">
<style type="text/css">
	.st0{fill:#FFFFFF;}
	.st1{fill:#851B29;stroke:#FFFFFF;stroke-width:0.691;stroke-miterlimit:10;}
	.st2{fill:#851B29;}
	.st3{fill:#851B29;stroke:#FFFFFF;stroke-width:0.5;stroke-miterlimit:10;}
	.st4{fill:#851B29;stroke:#FFFFFF;stroke-width:0.75;stroke-miterlimit:10;}
	.st5{fill:#851B29;stroke:#FFFFFF;stroke-width:0.4;stroke-miterlimit:10;}
	.st6{fill:#851B29;stroke:#FFFFFF;stroke-width:0.2;stroke-miterlimit:10;}
	.st7{fill:#851B29;stroke:#FFFFFF;stroke-width:0.7;stroke-miterlimit:10;}
	.st8{fill:none;stroke:#851B29;stroke-width:2;stroke-linecap:round;stroke-miterlimit:10;}
	.st9{fill:none;stroke:#851B29;stroke-width:2;stroke-miterlimit:10;}
	.st10{fill:#821524;stroke:#FFFFFF;stroke-width:0.6;stroke-miterlimit:10;}
</style>
<path class="st10" d="M120.2,115.5c-0.1-2.3-0.5-4.6-1.4-6.8c-3.2-7.7-9.3-11.6-17.3-12.6c-2.6-0.3-5.3-0.2-8-0.3
	c-0.3,0-0.8-0.1-0.9-0.3c-1.6-2.3-3.2-4.6-4.8-7c5.6-5.3,8.9-11.9,9.7-19.6c0.3-0.1,0.7-0.2,1-0.2c3.5-0.8,5.3-3,5.3-6.6
	c0-2.3,0-4.6,0-6.9c0-1.6-0.5-3-1.7-4c-0.6-0.6-1.2-1.1-1.9-1.5c-0.4-0.3-0.5-0.5-0.5-1c0-1.5,0-3,0-4.4c0-0.8,0.2-1.4,0.6-2
	c2.9-4.4,2.9-9.1-0.1-13c-1.6-2.2-3.8-3.7-6.2-4.7c-1.1-0.4-2.2-0.8-3.3-1.2c-3.5,0-6.9,0-10.4,0c-0.1,0.1-0.3,0.1-0.4,0.2
	c-3.2,0.8-6.1,2.1-8.8,3.9c-0.6,0.4-1.1,0.5-1.8,0.6c-3.8,0.1-7.5,0.5-11.1,1.8c-4.6,1.7-7.3,5-7.6,10c-0.2,2.5-0.2,5.1-0.1,7.6
	c0,1.3-0.2,2.1-1.4,2.9c-1.9,1.2-2.9,3-2.8,5.4c0.1,2.3,0.1,4.6,0,6.8c0,2.7,1.3,4.6,3.7,5.7c0.8,0.4,1.7,0.5,2.5,0.8
	c0.4,3.7,1.4,7.2,3.1,10.6c1.7,3.4,3.9,6.4,6.7,8.9c0,0.1,0,0.2-0.1,0.2c-1.1,1.6-2.3,3.2-3.2,4.9c-0.9,1.7-2.1,2.3-4.1,2.2
	c-3.2-0.2-6.4,0-9.5,0.8c-7,2-12.1,6.1-14.6,13.1c-1.3,3.5-1.1,7.2-1,10.9c0,1,0.5,1.3,1.5,1.3c0.3,0,0.5,0,0.8,0
	c1.4,0,1.8-0.4,1.8-1.8c0-1.5,0-3,0-4.5c0.1-3.2,1-6.2,3-8.8c3.4-4.5,8-6.5,13.5-6.9c2.5-0.2,4.5-0.1,7.1-0.1L75,126.7l17.9-27.2
	c0,0,0,0,0,0c1.8,0,2.8,0.3,4.6,0.4c1.6,0.1,3.2,0.1,4.8,0.4c8.4,1.5,13.7,7.9,13.7,16.3c0,1.2,0,2.5,0,3.7c0,1.3,0.4,1.7,1.7,1.7
	c0.2,0,0.5,0,0.7,0c1.3,0,1.7-0.4,1.7-1.7C120.3,118.7,120.3,117.1,120.2,115.5z M56.8,70.7c-0.2-1.1-0.3-2.3-0.3-3.4
	c-0.1-1.6-0.8-2.2-2.4-2.3c-0.9-0.1-1.8-0.3-2.7-0.6c-0.8-0.3-1.1-0.9-1.1-1.7c0-1.2,0-2.5,0-3.7c0-1.2,0-2.4,0-3.6
	c0-0.6,0.2-1.1,0.7-1.4c0.7-0.5,1.3-1,2.1-1.3c1-0.5,1.4-1.2,1.4-2.4c0-2.9,0-5.7,0-8.6c0-0.9,0.1-1.8,0.2-2.6
	c0.4-2.1,1.5-3.7,3.4-4.7c2.1-1.2,4.4-1.7,6.7-1.9c1.9-0.2,3.8-0.2,5.7-0.4c0.7-0.1,1.5-0.3,2-0.7c4.2-2.9,8.7-4.6,13.8-4.4
	c3.2,0.1,6.2,0.9,8.8,2.9c3.7,2.8,4.3,6.7,1.5,10.4c-0.8,1-1.1,2.1-1.1,3.3c0.1,2.2,0,4.5,0,6.7c0,1.1,0.4,1.8,1.4,2.2
	c0.2,0.1,0.3,0.2,0.5,0.3c1.6,0.8,2.5,1.8,2.3,3.8c-0.2,2-0.1,4,0,6c0,0.9-0.4,1.6-1.2,1.8c-0.8,0.3-1.7,0.5-2.6,0.5
	c-1.7,0.1-2.4,0.8-2.4,2.4c-0.3,6.6-2.8,12.2-7.2,16.9c-2.6,2.8-5.7,4.7-9.6,5.2C73,90,69.7,89,66.8,86.9
	C61.2,82.9,58.1,77.3,56.8,70.7z M60.7,98.4c1.2-1.8,2.4-3.5,3.6-5.3c0.5-0.7,0.9-1.3,1.4-2.1c3,1.8,6.1,2.7,9.5,2.7
	c3.4,0,6.5-1.1,9.4-2.8c0.2,0.3,0.4,0.5,0.5,0.7c1.5,2.2,3,4.3,4.5,6.5L75,119.3L60.7,98.4z"/>
</svg>
