<?xml version="1.0" encoding="utf-8"?>
<!-- Generator: Adobe Illustrator 21.1.0, SVG Export Plug-In . SVG Version: 6.00 Build 0)  -->
<svg version="1.1" id="Layer_1" xmlns="http://www.w3.org/2000/svg" xmlns:xlink="http://www.w3.org/1999/xlink" x="0px" y="0px"
	 viewBox="0 0 150 150" style="enable-background:new 0 0 150 150;" xml:space="preserve">
<style type="text/css">
	.st0{fill:#FFFFFF;}
	.st1{fill:#851B29;stroke:#FFFFFF;stroke-width:0.691;stroke-miterlimit:10;}
	.st2{fill:#851B29;}
	.st3{fill:#851B29;stroke:#FFFFFF;stroke-width:0.5;stroke-miterlimit:10;}
	.st4{fill:#851B29;stroke:#FFFFFF;stroke-width:0.75;stroke-miterlimit:10;}
	.st5{fill:#851B29;stroke:#FFFFFF;stroke-width:0.4;stroke-miterlimit:10;}
	.st6{fill:#851B29;stroke:#FFFFFF;stroke-width:0.2;stroke-miterlimit:10;}
	.st7{fill:#851B29;stroke:#FFFFFF;stroke-width:0.7;stroke-miterlimit:10;}
	.st8{fill:none;stroke:#851B29;stroke-width:2;stroke-linecap:round;stroke-miterlimit:10;}
	.st9{fill:none;stroke:#851B29;stroke-width:2;stroke-miterlimit:10;}
	.st10{fill:#821524;stroke:#FFFFFF;stroke-width:0.6;stroke-miterlimit:10;}
</style>
<path class="st3" d="M114.4,46.9c2.2-2.5,3.8-5.5,4.7-8.7c1.6-5.6-2.3-12.1-8-13.1c-6.3-1-11.4,1.3-15.3,6.2
	c-3.4,4.4-6.7,8.9-10,13.4c-0.3,0.6-1,0.9-1.6,0.8c-1.9-0.1-3.9-0.1-5.9-0.2c-0.2,0-0.5-0.1-0.8-0.1l0.4-0.6c0,0,0.1-0.1,0.1-0.1
	c1.5-1.9,1.2-4.7-0.7-6.2c-0.1-0.1-0.2-0.1-0.3-0.2c-2-1.3-4.7-0.8-6,1.2c-1.3,1.6-2.6,3.3-3.9,4.9c-0.4,0.6-1.1,0.7-1.7,0.4
	c0.8-0.9,1.5-1.8,2.2-2.6c1-1.1,1.4-2.7,1-4.1c-0.3-1.5-1.5-2.7-3.1-3c-1.7-0.5-3.4,0.1-4.5,1.5C59,38.9,57,41.4,55,43.8
	c-0.3,0.5-1,0.8-1.6,0.8c-4.5-0.2-8.9-0.4-13.4-0.5c-1.9-0.2-3.6,1.1-4,2.9c-0.5,1.8,0.4,3.8,2.1,4.6c1.6,0.8,3.2,1.6,4.8,2.5
	c0.2,0.1,0.4,0.2,0.6,0.2c4.8,2.4,17.3,8.5,17.9,8.8l7.9,4c-0.1,0.2-0.2,0.4-0.3,0.5c-4.5,6.1-8.9,12.1-13.4,18.1
	c-0.3,0.4-0.7,0.6-1.2,0.8c-7,2.7-14,5.5-21,8.2c-1.4,0.5-2.4,1.6-2.6,3c-0.4,2.2,1,4.3,3.2,4.7c5.5,1.3,11,2.5,16.4,3.7
	c0.7,0.1,1.2,0.5,1.4,1.1c0.9,2.2,2,4.4,3,6.6c1.4,3,2.8,6,4.2,9c0.7,1.7,2.5,2.6,4.3,2.3c1.7-0.2,3-1.6,3.2-3.4
	c1.2-7.5,2.3-15,3.5-22.5c0.1-0.6,0.3-1.1,0.7-1.6c4.3-5,8.6-10,13-15c0.6-0.7,1.2-1.4,1.9-2.2l4.2,5.2l17.8,21.8
	c0.7,0.9,1.7,1.5,2.8,1.6c0.5,0.1,1.1,0,1.6-0.1c2-0.6,3.2-2.7,2.7-4.7c-1.1-4.4-2.3-8.8-3.4-13.3c-0.1-0.5,0-1,0.3-1.4
	c1.2-1.6,2.4-3.1,3.7-4.6c0.8-1,1.6-2,2.4-3c0-0.1,0.1-0.1,0.1-0.2c1.3-2.1,0.7-4.9-1.4-6.2c0,0,0,0-0.1,0c-1.9-1.3-4.5-0.9-5.8,1
	l-2.2,2.7c-0.5-0.6-0.4-1.4,0.1-1.9c1.4-1.7,2.8-3.4,4.1-5.1c0,0,0,0,0.1-0.1c1.5-1.9,1.1-4.6-0.8-6.1c-0.1,0-0.1-0.1-0.2-0.1
	c-1.9-1.4-4.5-1.1-6,0.8c-0.1,0.2-0.3,0.4-0.4,0.7l-0.3-0.2c-0.6-2.1-1.1-4.3-1.8-6.4c-0.2-0.5,0-1.1,0.4-1.5
	C107.2,55.2,110.8,51.1,114.4,46.9z M99.4,60.6c1,3.6,1.9,7.1,2.8,10.7c0.2,0.8,0.5,1.5,1.4,1.7c0.8,0.1,1.6-0.2,2-0.9
	c0.8-1,1.6-2,2.5-3c0.2-0.2,0.8-0.2,1.2-0.2c0.1,0.4,0.1,0.8,0.1,1.2c0,0.2-0.2,0.3-0.3,0.5c-1.6,1.9-3,3.8-4.6,5.6
	c-0.5,0.6-0.7,1.4-0.5,2.1c0.4,1.6,0.9,3.2,1.2,4.8c0.1,0.8,0.6,1.4,1.4,1.6c0.8,0.2,1.6-0.2,2-0.9c1-1.2,1.9-2.4,2.9-3.6
	c0.4-0.6,0.9-1.2,1.4-1.7c0.3-0.3,0.8-0.2,1.2-0.3c0.1,0.4,0.1,0.9,0.1,1.3c0,0.2-0.3,0.4-0.4,0.5c-2.1,2.6-4.2,5.2-6.3,7.8
	c-0.6,0.6-0.8,1.5-0.5,2.3c0.6,2.2,1.2,4.4,1.7,6.6c0.7,2.5,1.4,5.1,2,7.6c0.1,0.2-0.1,0.5-0.2,0.8c-0.2-0.1-0.4-0.2-0.6-0.3
	c-0.1-0.1-0.2-0.2-0.3-0.3l-16-19.6c-2.3-2.8-4.6-5.6-6.9-8.4c-1.1-1.3-2.2-1.3-3.3,0L83,77.1c-5.2,6.1-10.4,12.3-15.7,18.4
	c-0.5,0.6-0.8,1.3-1,2c-1.3,7.6-2.4,15.2-3.6,22.8c-0.1,0.3-0.2,0.6-0.4,0.9c-0.2-0.2-0.5-0.5-0.6-0.8c-2.5-5.3-5-10.7-7.4-16
	c-0.4-0.9-1.2-1.6-2.2-1.7c-5.7-1.2-11.3-2.5-17-3.8c-0.4-0.1-0.8-0.3-1.2-0.4v-0.3c0.3-0.1,0.6-0.3,0.9-0.4
	c7.1-2.7,14.2-5.5,21.3-8.2c0.6-0.2,1.1-0.5,1.5-1c5.2-6.9,10.3-13.8,15.5-20.8c0.2-0.2,0.3-0.4,0.4-0.6c0.3-0.9-0.1-1.8-1-2.1
	c-3.9-2-7.8-4.1-11.7-6.2c-0.1,0-17.7-8.7-17.8-8.7C43,50,42.9,50,42.8,50c-0.9-0.5-1.9-1-2.8-1.4c-0.3-0.2-0.5-0.4-0.8-0.6l0.1-0.3
	c0.3,0,0.7,0,1,0c4.7,0.2,9.3,0.4,14,0.6c1,0.1,1.9-0.3,2.4-1.1c2.1-2.7,4.4-5.4,6.5-8.1c0.4-0.5,0.8-0.8,1.4-0.4s0.3,1-0.1,1.4
	c-1.4,1.7-2.7,3.5-4.2,5.2c-0.6,0.6-0.7,1.4-0.4,2.2c0.3,0.7,1.1,1.1,1.8,1c1.6,0.1,3.3,0.1,4.9,0.2c0.9,0.1,1.7-0.3,2.2-1
	c1.5-2,3.1-3.9,4.7-5.9c0.4-0.5,0.8-0.8,1.4-0.4c0.5,0.5,0.3,1-0.1,1.5c-0.9,1-1.7,2.1-2.6,3.1c-0.5,0.6-0.5,1.4-0.2,2
	c0.3,0.6,0.9,1,1.6,0.9c3.9,0.1,7.7,0.3,11.6,0.4c0.9,0.1,1.8-0.3,2.3-1.1c3.6-4.9,7.2-9.9,11-14.7c2.5-3.3,6.6-5.1,10.7-4.9
	c4.2,0,7.3,5.6,6.3,8.7c-0.8,2.6-2,4.9-3.8,7c-3.9,4.5-7.8,8.9-11.8,13.3C99.4,58.4,99.1,59.6,99.4,60.6z"/>
</svg>
